<?xml version="1.0" encoding="UTF-8" standalone="no"?><svg xmlns="http://www.w3.org/2000/svg" xmlns:xlink= "http://www.w3.org/1999/xlink" width="600" height="390" aria-label="A chart." style="overflow: hidden;"><defs id="_ABSTRACT_RENDERER_ID_939"><clipPath id="_ABSTRACT_RENDERER_ID_940"><rect x="115" y="75" width="371" height="241"></rect></clipPath></defs><rect x="0" y="0" width="600" height="390" stroke="none" stroke-width="0" fill="#ffffff"></rect><g><text text-anchor="start" x="115" y="52.05" font-family="Arial" font-size="13" font-weight="bold" stroke="none" stroke-width="0" fill="#000000">Time Cost vs. Array Length (Lower is Better)</text><rect x="115" y="41" width="371" height="13" stroke="none" stroke-width="0" fill-opacity="0" fill="#ffffff"></rect></g><g><rect x="499" y="75" width="88" height="144" stroke="none" stroke-width="0" fill-opacity="0" fill="#ffffff"></rect><g><rect x="499" y="75" width="88" height="30" stroke="none" stroke-width="0" fill-opacity="0" fill="#ffffff"></rect><g><text text-anchor="start" x="530" y="86.05" font-family="Arial" font-size="13" stroke="none" stroke-width="0" fill="#222222">GPU</text><text text-anchor="start" x="530" y="103.05" font-family="Arial" font-size="13" stroke="none" stroke-width="0" fill="#222222">(Native)</text></g><path d="M499,81.5L525,81.5" stroke="#3366cc" stroke-width="3" fill-opacity="1" fill="none"></path><circle cx="512" cy="81.5" r="4.5" stroke="none" stroke-width="0" fill="#3366cc"></circle></g><g><rect x="499" y="113" width="88" height="47" stroke="none" stroke-width="0" fill-opacity="0" fill="#ffffff"></rect><g><text text-anchor="start" x="530" y="124.05" font-family="Arial" font-size="13" stroke="none" stroke-width="0" fill="#222222">GPU</text><text text-anchor="start" x="530" y="141.05" font-family="Arial" font-size="13" stroke="none" stroke-width="0" fill="#222222">(Work-</text><text text-anchor="start" x="530" y="158.05" font-family="Arial" font-size="13" stroke="none" stroke-width="0" fill="#222222">Efficient)</text></g><path d="M499,119.5L525,119.5" stroke="#dc3912" stroke-width="3" fill-opacity="1" fill="none"></path><circle cx="512" cy="119.5" r="4.5" stroke="none" stroke-width="0" fill="#dc3912"></circle></g><g><rect x="499" y="168" width="88" height="30" stroke="none" stroke-width="0" fill-opacity="0" fill="#ffffff"></rect><g><text text-anchor="start" x="530" y="179.05" font-family="Arial" font-size="13" stroke="none" stroke-width="0" fill="#222222">GPU</text><text text-anchor="start" x="530" y="196.05" font-family="Arial" font-size="13" stroke="none" stroke-width="0" fill="#222222">(Thrust)</text></g><path d="M499,174.5L525,174.5" stroke="#ff9900" stroke-width="3" fill-opacity="1" fill="none"></path><circle cx="512" cy="174.5" r="4.5" stroke="none" stroke-width="0" fill="#ff9900"></circle></g><g><rect x="499" y="206" width="88" height="13" stroke="none" stroke-width="0" fill-opacity="0" fill="#ffffff"></rect><g><text text-anchor="start" x="530" y="217.05" font-family="Arial" font-size="13" stroke="none" stroke-width="0" fill="#222222">CPU</text></g><path d="M499,212.5L525,212.5" stroke="#109618" stroke-width="3" fill-opacity="1" fill="none"></path><circle cx="512" cy="212.5" r="4.5" stroke="none" stroke-width="0" fill="#109618"></circle></g></g><g><rect x="115" y="75" width="371" height="241" stroke="none" stroke-width="0" fill-opacity="0" fill="#ffffff"></rect><g clip-path="url(https://www.rapidtables.com/tools/line-graph.html#_ABSTRACT_RENDERER_ID_940)"><g><rect x="115" y="75" width="1" height="241" stroke="none" stroke-width="0" fill="#cccccc"></rect><rect x="189" y="75" width="1" height="241" stroke="none" stroke-width="0" fill="#cccccc"></rect><rect x="263" y="75" width="1" height="241" stroke="none" stroke-width="0" fill="#cccccc"></rect><rect x="337" y="75" width="1" height="241" stroke="none" stroke-width="0" fill="#cccccc"></rect><rect x="411" y="75" width="1" height="241" stroke="none" stroke-width="0" fill="#cccccc"></rect><rect x="485" y="75" width="1" height="241" stroke="none" stroke-width="0" fill="#cccccc"></rect><rect x="152" y="75" width="1" height="241" stroke="none" stroke-width="0" fill="#ebebeb"></rect><rect x="226" y="75" width="1" height="241" stroke="none" stroke-width="0" fill="#ebebeb"></rect><rect x="300" y="75" width="1" height="241" stroke="none" stroke-width="0" fill="#ebebeb"></rect><rect x="374" y="75" width="1" height="241" stroke="none" stroke-width="0" fill="#ebebeb"></rect><rect x="448" y="75" width="1" height="241" stroke="none" stroke-width="0" fill="#ebebeb"></rect><rect x="115" y="315" width="371" height="1" stroke="none" stroke-width="0" fill="#cccccc"></rect><rect x="115" y="291" width="371" height="1" stroke="none" stroke-width="0" fill="#cccccc"></rect><rect x="115" y="271" width="371" height="1" stroke="none" stroke-width="0" fill="#cccccc"></rect><rect x="115" y="226" width="371" height="1" stroke="none" stroke-width="0" fill="#cccccc"></rect><rect x="115" y="206" width="371" height="1" stroke="none" stroke-width="0" fill="#cccccc"></rect><rect x="115" y="160" width="371" height="1" stroke="none" stroke-width="0" fill="#cccccc"></rect><rect x="115" y="140" width="371" height="1" stroke="none" stroke-width="0" fill="#cccccc"></rect><rect x="115" y="95" width="371" height="1" stroke="none" stroke-width="0" fill="#cccccc"></rect><rect x="115" y="75" width="371" height="1" stroke="none" stroke-width="0" fill="#cccccc"></rect><rect x="115" y="286" width="371" height="1" stroke="none" stroke-width="0" fill="#ebebeb"></rect><rect x="115" y="281" width="371" height="1" stroke="none" stroke-width="0" fill="#ebebeb"></rect><rect x="115" y="278" width="371" height="1" stroke="none" stroke-width="0" fill="#ebebeb"></rect><rect x="115" y="274" width="371" height="1" stroke="none" stroke-width="0" fill="#ebebeb"></rect><rect x="115" y="252" width="371" height="1" stroke="none" stroke-width="0" fill="#ebebeb"></rect><rect x="115" y="240" width="371" height="1" stroke="none" stroke-width="0" fill="#ebebeb"></rect><rect x="115" y="232" width="371" height="1" stroke="none" stroke-width="0" fill="#ebebeb"></rect><rect x="115" y="220" width="371" height="1" stroke="none" stroke-width="0" fill="#ebebeb"></rect><rect x="115" y="216" width="371" height="1" stroke="none" stroke-width="0" fill="#ebebeb"></rect><rect x="115" y="212" width="371" height="1" stroke="none" stroke-width="0" fill="#ebebeb"></rect><rect x="115" y="209" width="371" height="1" stroke="none" stroke-width="0" fill="#ebebeb"></rect><rect x="115" y="186" width="371" height="1" stroke="none" stroke-width="0" fill="#ebebeb"></rect><rect x="115" y="175" width="371" height="1" stroke="none" stroke-width="0" fill="#ebebeb"></rect><rect x="115" y="166" width="371" height="1" stroke="none" stroke-width="0" fill="#ebebeb"></rect><rect x="115" y="155" width="371" height="1" stroke="none" stroke-width="0" fill="#ebebeb"></rect><rect x="115" y="151" width="371" height="1" stroke="none" stroke-width="0" fill="#ebebeb"></rect><rect x="115" y="147" width="371" height="1" stroke="none" stroke-width="0" fill="#ebebeb"></rect><rect x="115" y="143" width="371" height="1" stroke="none" stroke-width="0" fill="#ebebeb"></rect><rect x="115" y="121" width="371" height="1" stroke="none" stroke-width="0" fill="#ebebeb"></rect><rect x="115" y="109" width="371" height="1" stroke="none" stroke-width="0" fill="#ebebeb"></rect><rect x="115" y="101" width="371" height="1" stroke="none" stroke-width="0" fill="#ebebeb"></rect><rect x="115" y="90" width="371" height="1" stroke="none" stroke-width="0" fill="#ebebeb"></rect><rect x="115" y="85" width="371" height="1" stroke="none" stroke-width="0" fill="#ebebeb"></rect><rect x="115" y="81" width="371" height="1" stroke="none" stroke-width="0" fill="#ebebeb"></rect><rect x="115" y="78" width="371" height="1" stroke="none" stroke-width="0" fill="#ebebeb"></rect></g><g><rect x="115" y="315" width="371" height="1" stroke="none" stroke-width="0" fill="#333333"></rect></g><g><path d="M152.5,260.4493066234795L189.5,232.039855345985L226.5,218.42985946815094L263.5,195.24656295615608L300.5,176.80824324317703L337.5,157.18170673109938L374.5,135.4930320881374L411.5,114.85879266378913L448.5,93.74917771951422" stroke="#3366cc" stroke-width="3" fill-opacity="1" fill="none"></path><path d="M152.5,270.74057911446346L189.5,256.7414386774493L226.5,237.30281296896135L263.5,216.40268219968564L300.5,197.44892377335452L337.5,177.87273892381032L374.5,159.2446063155927L411.5,139.70155525082384L448.5,119.8817674982499" stroke="#dc3912" stroke-width="3" fill-opacity="1" fill="none"></path><path d="M152.5,292.31160857434656L189.5,290.3572752650831L226.5,281.03172301969454L263.5,272.3743920873334L300.5,254.84393356189443L337.5,243.01328743912808L374.5,227.30433975786758L411.5,208.5845258824968L448.5,191.3464355525805" stroke="#ff9900" stroke-width="3" fill-opacity="1" fill="none"></path><path d="M152.5,278.067596946081L189.5,258.5578545607711L226.5,238.77314642412034L263.5,219.01577792928023L300.5,199.66817077710982L337.5,179.88250973168027L374.5,159.9238194244599L411.5,141.28565800350026L448.5,116.64780073452715" stroke="#109618" stroke-width="3" fill-opacity="1" fill="none"></path></g></g><g><circle cx="152.5" cy="260.4493066234795" r="4.5" stroke="none" stroke-width="0" fill="#3366cc"></circle><circle cx="189.5" cy="232.039855345985" r="4.5" stroke="none" stroke-width="0" fill="#3366cc"></circle><circle cx="226.5" cy="218.42985946815094" r="4.5" stroke="none" stroke-width="0" fill="#3366cc"></circle><circle cx="263.5" cy="195.24656295615608" r="4.5" stroke="none" stroke-width="0" fill="#3366cc"></circle><circle cx="300.5" cy="176.80824324317703" r="4.5" stroke="none" stroke-width="0" fill="#3366cc"></circle><circle cx="337.5" cy="157.18170673109938" r="4.5" stroke="none" stroke-width="0" fill="#3366cc"></circle><circle cx="374.5" cy="135.4930320881374" r="4.5" stroke="none" stroke-width="0" fill="#3366cc"></circle><circle cx="411.5" cy="114.85879266378913" r="4.5" stroke="none" stroke-width="0" fill="#3366cc"></circle><circle cx="448.5" cy="93.74917771951422" r="4.5" stroke="none" stroke-width="0" fill="#3366cc"></circle><circle cx="152.5" cy="270.74057911446346" r="4.5" stroke="none" stroke-width="0" fill="#dc3912"></circle><circle cx="189.5" cy="256.7414386774493" r="4.5" stroke="none" stroke-width="0" fill="#dc3912"></circle><circle cx="226.5" cy="237.30281296896135" r="4.5" stroke="none" stroke-width="0" fill="#dc3912"></circle><circle cx="263.5" cy="216.40268219968564" r="4.5" stroke="none" stroke-width="0" fill="#dc3912"></circle><circle cx="300.5" cy="197.44892377335452" r="4.5" stroke="none" stroke-width="0" fill="#dc3912"></circle><circle cx="337.5" cy="177.87273892381032" r="4.5" stroke="none" stroke-width="0" fill="#dc3912"></circle><circle cx="374.5" cy="159.2446063155927" r="4.5" stroke="none" stroke-width="0" fill="#dc3912"></circle><circle cx="411.5" cy="139.70155525082384" r="4.5" stroke="none" stroke-width="0" fill="#dc3912"></circle><circle cx="448.5" cy="119.8817674982499" r="4.5" stroke="none" stroke-width="0" fill="#dc3912"></circle><circle cx="152.5" cy="292.31160857434656" r="4.5" stroke="none" stroke-width="0" fill="#ff9900"></circle><circle cx="189.5" cy="290.3572752650831" r="4.5" stroke="none" stroke-width="0" fill="#ff9900"></circle><circle cx="226.5" cy="281.03172301969454" r="4.5" stroke="none" stroke-width="0" fill="#ff9900"></circle><circle cx="263.5" cy="272.3743920873334" r="4.5" stroke="none" stroke-width="0" fill="#ff9900"></circle><circle cx="300.5" cy="254.84393356189443" r="4.5" stroke="none" stroke-width="0" fill="#ff9900"></circle><circle cx="337.5" cy="243.01328743912808" r="4.5" stroke="none" stroke-width="0" fill="#ff9900"></circle><circle cx="374.5" cy="227.30433975786758" r="4.5" stroke="none" stroke-width="0" fill="#ff9900"></circle><circle cx="411.5" cy="208.5845258824968" r="4.5" stroke="none" stroke-width="0" fill="#ff9900"></circle><circle cx="448.5" cy="191.3464355525805" r="4.5" stroke="none" stroke-width="0" fill="#ff9900"></circle><circle cx="152.5" cy="278.067596946081" r="4.5" stroke="none" stroke-width="0" fill="#109618"></circle><circle cx="189.5" cy="258.5578545607711" r="4.5" stroke="none" stroke-width="0" fill="#109618"></circle><circle cx="226.5" cy="238.77314642412034" r="4.5" stroke="none" stroke-width="0" fill="#109618"></circle><circle cx="263.5" cy="219.01577792928023" r="4.5" stroke="none" stroke-width="0" fill="#109618"></circle><circle cx="300.5" cy="199.66817077710982" r="4.5" stroke="none" stroke-width="0" fill="#109618"></circle><circle cx="337.5" cy="179.88250973168027" r="4.5" stroke="none" stroke-width="0" fill="#109618"></circle><circle cx="374.5" cy="159.9238194244599" r="4.5" stroke="none" stroke-width="0" fill="#109618"></circle><circle cx="411.5" cy="141.28565800350026" r="4.5" stroke="none" stroke-width="0" fill="#109618"></circle><circle cx="448.5" cy="116.64780073452715" r="4.5" stroke="none" stroke-width="0" fill="#109618"></circle></g><g><g><text text-anchor="middle" x="115.5" y="335.05" font-family="Arial" font-size="13" stroke="none" stroke-width="0" fill="#444444">20</text></g><g><text text-anchor="middle" x="189.5" y="335.05" font-family="Arial" font-size="13" stroke="none" stroke-width="0" fill="#444444">22</text></g><g><text text-anchor="middle" x="263.5" y="335.05" font-family="Arial" font-size="13" stroke="none" stroke-width="0" fill="#444444">24</text></g><g><text text-anchor="middle" x="337.5" y="335.05" font-family="Arial" font-size="13" stroke="none" stroke-width="0" fill="#444444">26</text></g><g><text text-anchor="middle" x="411.5" y="335.05" font-family="Arial" font-size="13" stroke="none" stroke-width="0" fill="#444444">28</text></g><g><text text-anchor="middle" x="485.5" y="335.05" font-family="Arial" font-size="13" stroke="none" stroke-width="0" fill="#444444">30</text></g><g><text text-anchor="end" x="102" y="319.55" font-family="Arial" font-size="13" stroke="none" stroke-width="0" fill="#444444">0</text></g><g><text text-anchor="end" x="102" y="296.01820000000004" font-family="Arial" font-size="13" stroke="none" stroke-width="0" fill="#444444">0.5</text></g><g><text text-anchor="end" x="102" y="276.3234" font-family="Arial" font-size="13" stroke="none" stroke-width="0" fill="#444444">1</text></g><g><text text-anchor="end" x="102" y="230.5937" font-family="Arial" font-size="13" stroke="none" stroke-width="0" fill="#444444">5</text></g><g><text text-anchor="end" x="102" y="210.899" font-family="Arial" font-size="13" stroke="none" stroke-width="0" fill="#444444">10</text></g><g><text text-anchor="end" x="102" y="165.16920000000002" font-family="Arial" font-size="13" stroke="none" stroke-width="0" fill="#444444">50</text></g><g><text text-anchor="end" x="102" y="145.4745" font-family="Arial" font-size="13" stroke="none" stroke-width="0" fill="#444444">100</text></g><g><text text-anchor="end" x="102" y="99.7447" font-family="Arial" font-size="13" stroke="none" stroke-width="0" fill="#444444">500</text></g><g><text text-anchor="end" x="102" y="80.05" font-family="Arial" font-size="13" stroke="none" stroke-width="0" fill="#444444">1,000</text></g></g></g><g><g><text text-anchor="middle" x="300.5" y="368.05" font-family="Arial" font-size="13" font-style="italic" stroke="none" stroke-width="0" fill="#222222">log(Array Size)</text><rect x="115" y="357" width="371" height="13" stroke="none" stroke-width="0" fill-opacity="0" fill="#ffffff"></rect></g><g><text text-anchor="middle" x="39.05" y="195.5" font-family="Arial" font-size="13" font-style="italic" transform="rotate(-90 39.05 195.5)" stroke="none" stroke-width="0" fill="#222222">Time Cost (ms)</text><path d="M27.999999999999996,316L28.00000000000001,75L41.00000000000001,75L40.99999999999999,316Z" stroke="none" stroke-width="0" fill-opacity="0" fill="#ffffff"></path></g></g><g></g></svg>