<?xml version="1.0" encoding="UTF-8" standalone="no"?><svg xmlns="http://www.w3.org/2000/svg" xmlns:xlink= "http://www.w3.org/1999/xlink" width="600" height="390" aria-label="A chart." style="overflow: hidden;"><defs id="_ABSTRACT_RENDERER_ID_442"><clipPath id="_ABSTRACT_RENDERER_ID_443"><rect x="115" y="75" width="371" height="241"></rect></clipPath></defs><rect x="0" y="0" width="600" height="390" stroke="none" stroke-width="0" fill="#ffffff"></rect><g><text text-anchor="start" x="115" y="52.05" font-family="Arial" font-size="13" font-weight="bold" stroke="none" stroke-width="0" fill="#000000">Time Cost vs. Block Size (2^25 Elements, Lower is Better)</text><rect x="115" y="41" width="371" height="13" stroke="none" stroke-width="0" fill-opacity="0" fill="#ffffff"></rect></g><g><rect x="499" y="75" width="88" height="34" stroke="none" stroke-width="0" fill-opacity="0" fill="#ffffff"></rect><g><rect x="499" y="75" width="88" height="13" stroke="none" stroke-width="0" fill-opacity="0" fill="#ffffff"></rect><g><text text-anchor="start" x="530" y="86.05" font-family="Arial" font-size="13" stroke="none" stroke-width="0" fill="#222222">Naive</text></g><path d="M499,81.5L525,81.5" stroke="#3366cc" stroke-width="3" fill-opacity="1" fill="none"></path><circle cx="512" cy="81.5" r="4.5" stroke="none" stroke-width="0" fill="#3366cc"></circle></g><g><rect x="499" y="96" width="88" height="13" stroke="none" stroke-width="0" fill-opacity="0" fill="#ffffff"></rect><g><text text-anchor="start" x="530" y="107.05" font-family="Arial" font-size="13" stroke="none" stroke-width="0" fill="#222222">Efficient</text></g><path d="M499,102.5L525,102.5" stroke="#dc3912" stroke-width="3" fill-opacity="1" fill="none"></path><circle cx="512" cy="102.5" r="4.5" stroke="none" stroke-width="0" fill="#dc3912"></circle></g></g><g><rect x="115" y="75" width="371" height="241" stroke="none" stroke-width="0" fill-opacity="0" fill="#ffffff"></rect><g clip-path="url(https://www.rapidtables.com/tools/line-graph.html#_ABSTRACT_RENDERER_ID_443)"><g><rect x="115" y="75" width="1" height="241" stroke="none" stroke-width="0" fill="#cccccc"></rect><rect x="201" y="75" width="1" height="241" stroke="none" stroke-width="0" fill="#cccccc"></rect><rect x="238" y="75" width="1" height="241" stroke="none" stroke-width="0" fill="#cccccc"></rect><rect x="324" y="75" width="1" height="241" stroke="none" stroke-width="0" fill="#cccccc"></rect><rect x="360" y="75" width="1" height="241" stroke="none" stroke-width="0" fill="#cccccc"></rect><rect x="446" y="75" width="1" height="241" stroke="none" stroke-width="0" fill="#cccccc"></rect><rect x="483" y="75" width="1" height="241" stroke="none" stroke-width="0" fill="#cccccc"></rect><rect x="152" y="75" width="1" height="241" stroke="none" stroke-width="0" fill="#ebebeb"></rect><rect x="174" y="75" width="1" height="241" stroke="none" stroke-width="0" fill="#ebebeb"></rect><rect x="189" y="75" width="1" height="241" stroke="none" stroke-width="0" fill="#ebebeb"></rect><rect x="211" y="75" width="1" height="241" stroke="none" stroke-width="0" fill="#ebebeb"></rect><rect x="219" y="75" width="1" height="241" stroke="none" stroke-width="0" fill="#ebebeb"></rect><rect x="226" y="75" width="1" height="241" stroke="none" stroke-width="0" fill="#ebebeb"></rect><rect x="232" y="75" width="1" height="241" stroke="none" stroke-width="0" fill="#ebebeb"></rect><rect x="275" y="75" width="1" height="241" stroke="none" stroke-width="0" fill="#ebebeb"></rect><rect x="296" y="75" width="1" height="241" stroke="none" stroke-width="0" fill="#ebebeb"></rect><rect x="312" y="75" width="1" height="241" stroke="none" stroke-width="0" fill="#ebebeb"></rect><rect x="333" y="75" width="1" height="241" stroke="none" stroke-width="0" fill="#ebebeb"></rect><rect x="341" y="75" width="1" height="241" stroke="none" stroke-width="0" fill="#ebebeb"></rect><rect x="349" y="75" width="1" height="241" stroke="none" stroke-width="0" fill="#ebebeb"></rect><rect x="355" y="75" width="1" height="241" stroke="none" stroke-width="0" fill="#ebebeb"></rect><rect x="397" y="75" width="1" height="241" stroke="none" stroke-width="0" fill="#ebebeb"></rect><rect x="419" y="75" width="1" height="241" stroke="none" stroke-width="0" fill="#ebebeb"></rect><rect x="434" y="75" width="1" height="241" stroke="none" stroke-width="0" fill="#ebebeb"></rect><rect x="456" y="75" width="1" height="241" stroke="none" stroke-width="0" fill="#ebebeb"></rect><rect x="464" y="75" width="1" height="241" stroke="none" stroke-width="0" fill="#ebebeb"></rect><rect x="471" y="75" width="1" height="241" stroke="none" stroke-width="0" fill="#ebebeb"></rect><rect x="478" y="75" width="1" height="241" stroke="none" stroke-width="0" fill="#ebebeb"></rect><rect x="520" y="75" width="1" height="241" stroke="none" stroke-width="0" fill="#ebebeb"></rect><rect x="115" y="315" width="371" height="1" stroke="none" stroke-width="0" fill="#cccccc"></rect><rect x="115" y="239" width="371" height="1" stroke="none" stroke-width="0" fill="#cccccc"></rect><rect x="115" y="214" width="371" height="1" stroke="none" stroke-width="0" fill="#cccccc"></rect><rect x="115" y="157" width="371" height="1" stroke="none" stroke-width="0" fill="#cccccc"></rect><rect x="115" y="132" width="371" height="1" stroke="none" stroke-width="0" fill="#cccccc"></rect><rect x="115" y="75" width="371" height="1" stroke="none" stroke-width="0" fill="#cccccc"></rect><rect x="115" y="272" width="371" height="1" stroke="none" stroke-width="0" fill="#ebebeb"></rect><rect x="115" y="257" width="371" height="1" stroke="none" stroke-width="0" fill="#ebebeb"></rect><rect x="115" y="247" width="371" height="1" stroke="none" stroke-width="0" fill="#ebebeb"></rect><rect x="115" y="233" width="371" height="1" stroke="none" stroke-width="0" fill="#ebebeb"></rect><rect x="115" y="227" width="371" height="1" stroke="none" stroke-width="0" fill="#ebebeb"></rect><rect x="115" y="222" width="371" height="1" stroke="none" stroke-width="0" fill="#ebebeb"></rect><rect x="115" y="218" width="371" height="1" stroke="none" stroke-width="0" fill="#ebebeb"></rect><rect x="115" y="190" width="371" height="1" stroke="none" stroke-width="0" fill="#ebebeb"></rect><rect x="115" y="175" width="371" height="1" stroke="none" stroke-width="0" fill="#ebebeb"></rect><rect x="115" y="165" width="371" height="1" stroke="none" stroke-width="0" fill="#ebebeb"></rect><rect x="115" y="151" width="371" height="1" stroke="none" stroke-width="0" fill="#ebebeb"></rect><rect x="115" y="145" width="371" height="1" stroke="none" stroke-width="0" fill="#ebebeb"></rect><rect x="115" y="140" width="371" height="1" stroke="none" stroke-width="0" fill="#ebebeb"></rect><rect x="115" y="136" width="371" height="1" stroke="none" stroke-width="0" fill="#ebebeb"></rect><rect x="115" y="108" width="371" height="1" stroke="none" stroke-width="0" fill="#ebebeb"></rect><rect x="115" y="93" width="371" height="1" stroke="none" stroke-width="0" fill="#ebebeb"></rect><rect x="115" y="83" width="371" height="1" stroke="none" stroke-width="0" fill="#ebebeb"></rect></g><g><rect x="115" y="315" width="371" height="1" stroke="none" stroke-width="0" fill="#333333"></rect></g><g><path d="M115.5,130.1667491564149L152.45,150.52500470920526L189.4,169.53352944899072L226.35,190.66258723043154L263.3,211.2786904145641L300.25,234.2139886107519L337.2,257.0612230321906L374.15,260.33530455901445L411.1,260.35151396277024L448.05,260.0502321311029L485,258.421513151686" stroke="#3366cc" stroke-width="3" fill-opacity="1" fill="none"></path><path d="M115.5,211.61713396691158L152.45,230.58103242596096L189.4,254.9499677526818L226.35,271.069428620608L263.3,285.84392839004846L300.25,286.1057223396225L337.2,285.4880110981151L374.15,286.4288581098072L411.1,286.5500945056536L448.05,285.6613688914744L485,285.8831142697498" stroke="#dc3912" stroke-width="3" fill-opacity="1" fill="none"></path></g></g><g><circle cx="115.5" cy="130.1667491564149" r="4.5" stroke="none" stroke-width="0" fill="#3366cc"></circle><circle cx="152.45" cy="150.52500470920526" r="4.5" stroke="none" stroke-width="0" fill="#3366cc"></circle><circle cx="189.4" cy="169.53352944899072" r="4.5" stroke="none" stroke-width="0" fill="#3366cc"></circle><circle cx="226.35" cy="190.66258723043154" r="4.5" stroke="none" stroke-width="0" fill="#3366cc"></circle><circle cx="263.3" cy="211.2786904145641" r="4.5" stroke="none" stroke-width="0" fill="#3366cc"></circle><circle cx="300.25" cy="234.2139886107519" r="4.5" stroke="none" stroke-width="0" fill="#3366cc"></circle><circle cx="337.2" cy="257.0612230321906" r="4.5" stroke="none" stroke-width="0" fill="#3366cc"></circle><circle cx="374.15" cy="260.33530455901445" r="4.5" stroke="none" stroke-width="0" fill="#3366cc"></circle><circle cx="411.1" cy="260.35151396277024" r="4.5" stroke="none" stroke-width="0" fill="#3366cc"></circle><circle cx="448.05" cy="260.0502321311029" r="4.5" stroke="none" stroke-width="0" fill="#3366cc"></circle><circle cx="485" cy="258.421513151686" r="4.5" stroke="none" stroke-width="0" fill="#3366cc"></circle><circle cx="115.5" cy="211.61713396691158" r="4.5" stroke="none" stroke-width="0" fill="#dc3912"></circle><circle cx="152.45" cy="230.58103242596096" r="4.5" stroke="none" stroke-width="0" fill="#dc3912"></circle><circle cx="189.4" cy="254.9499677526818" r="4.5" stroke="none" stroke-width="0" fill="#dc3912"></circle><circle cx="226.35" cy="271.069428620608" r="4.5" stroke="none" stroke-width="0" fill="#dc3912"></circle><circle cx="263.3" cy="285.84392839004846" r="4.5" stroke="none" stroke-width="0" fill="#dc3912"></circle><circle cx="300.25" cy="286.1057223396225" r="4.5" stroke="none" stroke-width="0" fill="#dc3912"></circle><circle cx="337.2" cy="285.4880110981151" r="4.5" stroke="none" stroke-width="0" fill="#dc3912"></circle><circle cx="374.15" cy="286.4288581098072" r="4.5" stroke="none" stroke-width="0" fill="#dc3912"></circle><circle cx="411.1" cy="286.5500945056536" r="4.5" stroke="none" stroke-width="0" fill="#dc3912"></circle><circle cx="448.05" cy="285.6613688914744" r="4.5" stroke="none" stroke-width="0" fill="#dc3912"></circle><circle cx="485" cy="285.8831142697498" r="4.5" stroke="none" stroke-width="0" fill="#dc3912"></circle></g><g><g><text text-anchor="middle" x="115.5" y="335.05" font-family="Arial" font-size="13" stroke="none" stroke-width="0" fill="#444444">1</text></g><g><text text-anchor="middle" x="201.2952" y="335.05" font-family="Arial" font-size="13" stroke="none" stroke-width="0" fill="#444444">5</text></g><g><text text-anchor="middle" x="238.2452" y="335.05" font-family="Arial" font-size="13" stroke="none" stroke-width="0" fill="#444444">10</text></g><g><text text-anchor="middle" x="324.0405" y="335.05" font-family="Arial" font-size="13" stroke="none" stroke-width="0" fill="#444444">50</text></g><g><text text-anchor="middle" x="360.9905" y="335.05" font-family="Arial" font-size="13" stroke="none" stroke-width="0" fill="#444444">100</text></g><g><text text-anchor="middle" x="446.7857" y="335.05" font-family="Arial" font-size="13" stroke="none" stroke-width="0" fill="#444444">500</text></g><g><text text-anchor="middle" x="483.7357" y="335.05" font-family="Arial" font-size="13" stroke="none" stroke-width="0" fill="#444444">1,000</text></g><g><text text-anchor="end" x="102" y="319.55" font-family="Arial" font-size="13" stroke="none" stroke-width="0" fill="#444444">0</text></g><g><text text-anchor="end" x="102" y="244.1269" font-family="Arial" font-size="13" stroke="none" stroke-width="0" fill="#444444">50</text></g><g><text text-anchor="end" x="102" y="219.4309" font-family="Arial" font-size="13" stroke="none" stroke-width="0" fill="#444444">100</text></g><g><text text-anchor="end" x="102" y="162.0884" font-family="Arial" font-size="13" stroke="none" stroke-width="0" fill="#444444">500</text></g><g><text text-anchor="end" x="102" y="137.3924" font-family="Arial" font-size="13" stroke="none" stroke-width="0" fill="#444444">1,000</text></g><g><text text-anchor="end" x="102" y="80.05" font-family="Arial" font-size="13" stroke="none" stroke-width="0" fill="#444444">5,000</text></g></g></g><g><g><text text-anchor="middle" x="300.5" y="368.05" font-family="Arial" font-size="13" font-style="italic" stroke="none" stroke-width="0" fill="#222222">Block Size</text><rect x="115" y="357" width="371" height="13" stroke="none" stroke-width="0" fill-opacity="0" fill="#ffffff"></rect></g><g><text text-anchor="middle" x="39.05" y="195.5" font-family="Arial" font-size="13" font-style="italic" transform="rotate(-90 39.05 195.5)" stroke="none" stroke-width="0" fill="#222222">Time Cost (ms)</text><path d="M27.999999999999996,316L28.00000000000001,75L41.00000000000001,75L40.99999999999999,316Z" stroke="none" stroke-width="0" fill-opacity="0" fill="#ffffff"></path></g></g><g></g></svg>