<?xml version="1.0" encoding="UTF-8" standalone="no"?><svg xmlns="http://www.w3.org/2000/svg" xmlns:xlink= "http://www.w3.org/1999/xlink" width="600" height="390" aria-label="A chart." style="overflow: hidden;"><defs id="_ABSTRACT_RENDERER_ID_1244"><clipPath id="_ABSTRACT_RENDERER_ID_1245"><rect x="115" y="75" width="371" height="241"></rect></clipPath></defs><rect x="0" y="0" width="600" height="390" stroke="none" stroke-width="0" fill="#ffffff"></rect><g><text text-anchor="start" x="115" y="52.05" font-family="Arial" font-size="13" font-weight="bold" stroke="none" stroke-width="0" fill="#000000">FPS vs. Block Size (Visualization OFF)</text><rect x="115" y="41" width="371" height="13" stroke="none" stroke-width="0" fill-opacity="0" fill="#ffffff"></rect></g><g><rect x="499" y="75" width="88" height="55" stroke="none" stroke-width="0" fill-opacity="0" fill="#ffffff"></rect><g><rect x="499" y="75" width="88" height="13" stroke="none" stroke-width="0" fill-opacity="0" fill="#ffffff"></rect><g><text text-anchor="start" x="530" y="86.05" font-family="Arial" font-size="13" stroke="none" stroke-width="0" fill="#222222">Naive</text></g><path d="M499,81.5L525,81.5" stroke="#3366cc" stroke-width="3" fill-opacity="1" fill="none"></path><circle cx="512" cy="81.5" r="4.5" stroke="none" stroke-width="0" fill="#3366cc"></circle></g><g><rect x="499" y="96" width="88" height="13" stroke="none" stroke-width="0" fill-opacity="0" fill="#ffffff"></rect><g><text text-anchor="start" x="530" y="107.05" font-family="Arial" font-size="13" stroke="none" stroke-width="0" fill="#222222">Uniform</text></g><path d="M499,102.5L525,102.5" stroke="#dc3912" stroke-width="3" fill-opacity="1" fill="none"></path><circle cx="512" cy="102.5" r="4.5" stroke="none" stroke-width="0" fill="#dc3912"></circle></g><g><rect x="499" y="117" width="88" height="13" stroke="none" stroke-width="0" fill-opacity="0" fill="#ffffff"></rect><g><text text-anchor="start" x="530" y="128.05" font-family="Arial" font-size="13" stroke="none" stroke-width="0" fill="#222222">Coherent</text></g><path d="M499,123.5L525,123.5" stroke="#ff9900" stroke-width="3" fill-opacity="1" fill="none"></path><circle cx="512" cy="123.5" r="4.5" stroke="none" stroke-width="0" fill="#ff9900"></circle></g></g><g><rect x="115" y="75" width="371" height="241" stroke="none" stroke-width="0" fill-opacity="0" fill="#ffffff"></rect><g clip-path="url(https://www.rapidtables.com/tools/line-graph.html#_ABSTRACT_RENDERER_ID_1245)"><g><rect x="115" y="75" width="1" height="241" stroke="none" stroke-width="0" fill="#cccccc"></rect><rect x="238" y="75" width="1" height="241" stroke="none" stroke-width="0" fill="#cccccc"></rect><rect x="362" y="75" width="1" height="241" stroke="none" stroke-width="0" fill="#cccccc"></rect><rect x="485" y="75" width="1" height="241" stroke="none" stroke-width="0" fill="#cccccc"></rect><rect x="177" y="75" width="1" height="241" stroke="none" stroke-width="0" fill="#ebebeb"></rect><rect x="300" y="75" width="1" height="241" stroke="none" stroke-width="0" fill="#ebebeb"></rect><rect x="423" y="75" width="1" height="241" stroke="none" stroke-width="0" fill="#ebebeb"></rect><rect x="115" y="315" width="371" height="1" stroke="none" stroke-width="0" fill="#cccccc"></rect><rect x="115" y="285" width="371" height="1" stroke="none" stroke-width="0" fill="#cccccc"></rect><rect x="115" y="269" width="371" height="1" stroke="none" stroke-width="0" fill="#cccccc"></rect><rect x="115" y="232" width="371" height="1" stroke="none" stroke-width="0" fill="#cccccc"></rect><rect x="115" y="216" width="371" height="1" stroke="none" stroke-width="0" fill="#cccccc"></rect><rect x="115" y="180" width="371" height="1" stroke="none" stroke-width="0" fill="#cccccc"></rect><rect x="115" y="164" width="371" height="1" stroke="none" stroke-width="0" fill="#cccccc"></rect><rect x="115" y="127" width="371" height="1" stroke="none" stroke-width="0" fill="#cccccc"></rect><rect x="115" y="112" width="371" height="1" stroke="none" stroke-width="0" fill="#cccccc"></rect><rect x="115" y="75" width="371" height="1" stroke="none" stroke-width="0" fill="#cccccc"></rect><rect x="115" y="296" width="371" height="1" stroke="none" stroke-width="0" fill="#ebebeb"></rect><rect x="115" y="290" width="371" height="1" stroke="none" stroke-width="0" fill="#ebebeb"></rect><rect x="115" y="281" width="371" height="1" stroke="none" stroke-width="0" fill="#ebebeb"></rect><rect x="115" y="277" width="371" height="1" stroke="none" stroke-width="0" fill="#ebebeb"></rect><rect x="115" y="274" width="371" height="1" stroke="none" stroke-width="0" fill="#ebebeb"></rect><rect x="115" y="271" width="371" height="1" stroke="none" stroke-width="0" fill="#ebebeb"></rect><rect x="115" y="253" width="371" height="1" stroke="none" stroke-width="0" fill="#ebebeb"></rect><rect x="115" y="244" width="371" height="1" stroke="none" stroke-width="0" fill="#ebebeb"></rect><rect x="115" y="237" width="371" height="1" stroke="none" stroke-width="0" fill="#ebebeb"></rect><rect x="115" y="228" width="371" height="1" stroke="none" stroke-width="0" fill="#ebebeb"></rect><rect x="115" y="225" width="371" height="1" stroke="none" stroke-width="0" fill="#ebebeb"></rect><rect x="115" y="222" width="371" height="1" stroke="none" stroke-width="0" fill="#ebebeb"></rect><rect x="115" y="219" width="371" height="1" stroke="none" stroke-width="0" fill="#ebebeb"></rect><rect x="115" y="201" width="371" height="1" stroke="none" stroke-width="0" fill="#ebebeb"></rect><rect x="115" y="191" width="371" height="1" stroke="none" stroke-width="0" fill="#ebebeb"></rect><rect x="115" y="185" width="371" height="1" stroke="none" stroke-width="0" fill="#ebebeb"></rect><rect x="115" y="176" width="371" height="1" stroke="none" stroke-width="0" fill="#ebebeb"></rect><rect x="115" y="172" width="371" height="1" stroke="none" stroke-width="0" fill="#ebebeb"></rect><rect x="115" y="169" width="371" height="1" stroke="none" stroke-width="0" fill="#ebebeb"></rect><rect x="115" y="166" width="371" height="1" stroke="none" stroke-width="0" fill="#ebebeb"></rect><rect x="115" y="148" width="371" height="1" stroke="none" stroke-width="0" fill="#ebebeb"></rect><rect x="115" y="139" width="371" height="1" stroke="none" stroke-width="0" fill="#ebebeb"></rect><rect x="115" y="133" width="371" height="1" stroke="none" stroke-width="0" fill="#ebebeb"></rect><rect x="115" y="123" width="371" height="1" stroke="none" stroke-width="0" fill="#ebebeb"></rect><rect x="115" y="120" width="371" height="1" stroke="none" stroke-width="0" fill="#ebebeb"></rect><rect x="115" y="117" width="371" height="1" stroke="none" stroke-width="0" fill="#ebebeb"></rect><rect x="115" y="114" width="371" height="1" stroke="none" stroke-width="0" fill="#ebebeb"></rect><rect x="115" y="96" width="371" height="1" stroke="none" stroke-width="0" fill="#ebebeb"></rect><rect x="115" y="87" width="371" height="1" stroke="none" stroke-width="0" fill="#ebebeb"></rect><rect x="115" y="80" width="371" height="1" stroke="none" stroke-width="0" fill="#ebebeb"></rect></g><g><rect x="115" y="75" width="1" height="241" stroke="none" stroke-width="0" fill="#333333"></rect><rect x="115" y="315" width="371" height="1" stroke="none" stroke-width="0" fill="#333333"></rect></g><g><path d="M116.73333333333333,296.8204823795703L121.66666666666667,260.1786252920668L127.83333333333333,245.16966848017879L140.16666666666666,230.18779895985682L154.96666666666667,219.89751426982914L273.3666666666667,212.2740852175139L431.23333333333335,213.02677743433946" stroke="#3366cc" stroke-width="3" fill-opacity="1" fill="none"></path><path d="M116.73333333333333,166.96323179543677L121.66666666666667,145.4046558252225L127.83333333333333,139.78135908985163L140.16666666666666,134.2908548880161L154.96666666666667,138.586757692593L273.3666666666667,139.55254444147016L431.23333333333335,139.85814454501755" stroke="#dc3912" stroke-width="3" fill-opacity="1" fill="none"></path><path d="M116.73333333333333,155.63893343688073L121.66666666666667,133.28930473052597L127.83333333333333,125.50571103961363L140.16666666666666,118.21089131164928L154.96666666666667,114.59123514925258L273.3666666666667,113.14250381586021L431.23333333333335,113.62334250962564" stroke="#ff9900" stroke-width="3" fill-opacity="1" fill="none"></path></g></g><g><circle cx="116.73333333333333" cy="296.8204823795703" r="4.5" stroke="none" stroke-width="0" fill="#3366cc"></circle><circle cx="121.66666666666667" cy="260.1786252920668" r="4.5" stroke="none" stroke-width="0" fill="#3366cc"></circle><circle cx="127.83333333333333" cy="245.16966848017879" r="4.5" stroke="none" stroke-width="0" fill="#3366cc"></circle><circle cx="140.16666666666666" cy="230.18779895985682" r="4.5" stroke="none" stroke-width="0" fill="#3366cc"></circle><circle cx="154.96666666666667" cy="219.89751426982914" r="4.5" stroke="none" stroke-width="0" fill="#3366cc"></circle><circle cx="273.3666666666667" cy="212.2740852175139" r="4.5" stroke="none" stroke-width="0" fill="#3366cc"></circle><circle cx="431.23333333333335" cy="213.02677743433946" r="4.5" stroke="none" stroke-width="0" fill="#3366cc"></circle><circle cx="116.73333333333333" cy="166.96323179543677" r="4.5" stroke="none" stroke-width="0" fill="#dc3912"></circle><circle cx="121.66666666666667" cy="145.4046558252225" r="4.5" stroke="none" stroke-width="0" fill="#dc3912"></circle><circle cx="127.83333333333333" cy="139.78135908985163" r="4.5" stroke="none" stroke-width="0" fill="#dc3912"></circle><circle cx="140.16666666666666" cy="134.2908548880161" r="4.5" stroke="none" stroke-width="0" fill="#dc3912"></circle><circle cx="154.96666666666667" cy="138.586757692593" r="4.5" stroke="none" stroke-width="0" fill="#dc3912"></circle><circle cx="273.3666666666667" cy="139.55254444147016" r="4.5" stroke="none" stroke-width="0" fill="#dc3912"></circle><circle cx="431.23333333333335" cy="139.85814454501755" r="4.5" stroke="none" stroke-width="0" fill="#dc3912"></circle><circle cx="116.73333333333333" cy="155.63893343688073" r="4.5" stroke="none" stroke-width="0" fill="#ff9900"></circle><circle cx="121.66666666666667" cy="133.28930473052597" r="4.5" stroke="none" stroke-width="0" fill="#ff9900"></circle><circle cx="127.83333333333333" cy="125.50571103961363" r="4.5" stroke="none" stroke-width="0" fill="#ff9900"></circle><circle cx="140.16666666666666" cy="118.21089131164928" r="4.5" stroke="none" stroke-width="0" fill="#ff9900"></circle><circle cx="154.96666666666667" cy="114.59123514925258" r="4.5" stroke="none" stroke-width="0" fill="#ff9900"></circle><circle cx="273.3666666666667" cy="113.14250381586021" r="4.5" stroke="none" stroke-width="0" fill="#ff9900"></circle><circle cx="431.23333333333335" cy="113.62334250962564" r="4.5" stroke="none" stroke-width="0" fill="#ff9900"></circle></g><g><g><text text-anchor="middle" x="115.5" y="335.05" font-family="Arial" font-size="13" stroke="none" stroke-width="0" fill="#444444">0</text></g><g><text text-anchor="middle" x="238.8333" y="335.05" font-family="Arial" font-size="13" stroke="none" stroke-width="0" fill="#444444">100</text></g><g><text text-anchor="middle" x="362.1667" y="335.05" font-family="Arial" font-size="13" stroke="none" stroke-width="0" fill="#444444">200</text></g><g><text text-anchor="middle" x="485.5" y="335.05" font-family="Arial" font-size="13" stroke="none" stroke-width="0" fill="#444444">300</text></g><g><text text-anchor="end" x="102" y="319.55" font-family="Arial" font-size="13" stroke="none" stroke-width="0" fill="#444444">0</text></g><g><text text-anchor="end" x="102" y="289.74060000000003" font-family="Arial" font-size="13" stroke="none" stroke-width="0" fill="#444444">0.5</text></g><g><text text-anchor="end" x="102" y="273.95980000000003" font-family="Arial" font-size="13" stroke="none" stroke-width="0" fill="#444444">1</text></g><g><text text-anchor="end" x="102" y="237.3179" font-family="Arial" font-size="13" stroke="none" stroke-width="0" fill="#444444">5</text></g><g><text text-anchor="end" x="102" y="221.5371" font-family="Arial" font-size="13" stroke="none" stroke-width="0" fill="#444444">10</text></g><g><text text-anchor="end" x="102" y="184.89530000000002" font-family="Arial" font-size="13" stroke="none" stroke-width="0" fill="#444444">50</text></g><g><text text-anchor="end" x="102" y="169.11450000000002" font-family="Arial" font-size="13" stroke="none" stroke-width="0" fill="#444444">100</text></g><g><text text-anchor="end" x="102" y="132.4726" font-family="Arial" font-size="13" stroke="none" stroke-width="0" fill="#444444">500</text></g><g><text text-anchor="end" x="102" y="116.6919" font-family="Arial" font-size="13" stroke="none" stroke-width="0" fill="#444444">1,000</text></g><g><text text-anchor="end" x="102" y="80.05" font-family="Arial" font-size="13" stroke="none" stroke-width="0" fill="#444444">5,000</text></g></g></g><g><g><text text-anchor="middle" x="300.5" y="368.05" font-family="Arial" font-size="13" font-style="italic" stroke="none" stroke-width="0" fill="#222222">Block Size</text><rect x="115" y="357" width="371" height="13" stroke="none" stroke-width="0" fill-opacity="0" fill="#ffffff"></rect></g><g><text text-anchor="middle" x="39.05" y="195.5" font-family="Arial" font-size="13" font-style="italic" transform="rotate(-90 39.05 195.5)" stroke="none" stroke-width="0" fill="#222222">FPS</text><path d="M27.999999999999996,316L28.00000000000001,75L41.00000000000001,75L40.99999999999999,316Z" stroke="none" stroke-width="0" fill-opacity="0" fill="#ffffff"></path></g></g><g></g></svg>