<?xml version="1.0" encoding="UTF-8" standalone="no"?><svg xmlns="http://www.w3.org/2000/svg" xmlns:xlink= "http://www.w3.org/1999/xlink" width="600" height="390" aria-label="A chart." style="overflow: hidden;"><defs id="_ABSTRACT_RENDERER_ID_977"><clipPath id="_ABSTRACT_RENDERER_ID_978"><rect x="115" y="75" width="371" height="241"></rect></clipPath></defs><rect x="0" y="0" width="600" height="390" stroke="none" stroke-width="0" fill="#ffffff"></rect><g><text text-anchor="start" x="115" y="52.05" font-family="Arial" font-size="13" font-weight="bold" stroke="none" stroke-width="0" fill="#000000">FPS vs. #Boid (Visualization OFF)</text><rect x="115" y="41" width="371" height="13" stroke="none" stroke-width="0" fill-opacity="0" fill="#ffffff"></rect></g><g><rect x="499" y="75" width="88" height="55" stroke="none" stroke-width="0" fill-opacity="0" fill="#ffffff"></rect><g><rect x="499" y="75" width="88" height="13" stroke="none" stroke-width="0" fill-opacity="0" fill="#ffffff"></rect><g><text text-anchor="start" x="530" y="86.05" font-family="Arial" font-size="13" stroke="none" stroke-width="0" fill="#222222">Naive</text></g><path d="M499,81.5L525,81.5" stroke="#3366cc" stroke-width="3" fill-opacity="1" fill="none"></path><circle cx="512" cy="81.5" r="4.5" stroke="none" stroke-width="0" fill="#3366cc"></circle></g><g><rect x="499" y="96" width="88" height="13" stroke="none" stroke-width="0" fill-opacity="0" fill="#ffffff"></rect><g><text text-anchor="start" x="530" y="107.05" font-family="Arial" font-size="13" stroke="none" stroke-width="0" fill="#222222">Uniform</text></g><path d="M499,102.5L525,102.5" stroke="#dc3912" stroke-width="3" fill-opacity="1" fill="none"></path><circle cx="512" cy="102.5" r="4.5" stroke="none" stroke-width="0" fill="#dc3912"></circle></g><g><rect x="499" y="117" width="88" height="13" stroke="none" stroke-width="0" fill-opacity="0" fill="#ffffff"></rect><g><text text-anchor="start" x="530" y="128.05" font-family="Arial" font-size="13" stroke="none" stroke-width="0" fill="#222222">Coherent</text></g><path d="M499,123.5L525,123.5" stroke="#ff9900" stroke-width="3" fill-opacity="1" fill="none"></path><circle cx="512" cy="123.5" r="4.5" stroke="none" stroke-width="0" fill="#ff9900"></circle></g></g><g><rect x="115" y="75" width="371" height="241" stroke="none" stroke-width="0" fill-opacity="0" fill="#ffffff"></rect><g clip-path="url(https://www.rapidtables.com/tools/line-graph.html#_ABSTRACT_RENDERER_ID_978)"><g><rect x="115" y="75" width="1" height="241" stroke="none" stroke-width="0" fill="#cccccc"></rect><rect x="189" y="75" width="1" height="241" stroke="none" stroke-width="0" fill="#cccccc"></rect><rect x="263" y="75" width="1" height="241" stroke="none" stroke-width="0" fill="#cccccc"></rect><rect x="337" y="75" width="1" height="241" stroke="none" stroke-width="0" fill="#cccccc"></rect><rect x="411" y="75" width="1" height="241" stroke="none" stroke-width="0" fill="#cccccc"></rect><rect x="485" y="75" width="1" height="241" stroke="none" stroke-width="0" fill="#cccccc"></rect><rect x="152" y="75" width="1" height="241" stroke="none" stroke-width="0" fill="#ebebeb"></rect><rect x="226" y="75" width="1" height="241" stroke="none" stroke-width="0" fill="#ebebeb"></rect><rect x="300" y="75" width="1" height="241" stroke="none" stroke-width="0" fill="#ebebeb"></rect><rect x="374" y="75" width="1" height="241" stroke="none" stroke-width="0" fill="#ebebeb"></rect><rect x="448" y="75" width="1" height="241" stroke="none" stroke-width="0" fill="#ebebeb"></rect><rect x="115" y="315" width="371" height="1" stroke="none" stroke-width="0" fill="#cccccc"></rect><rect x="115" y="235" width="371" height="1" stroke="none" stroke-width="0" fill="#cccccc"></rect><rect x="115" y="155" width="371" height="1" stroke="none" stroke-width="0" fill="#cccccc"></rect><rect x="115" y="75" width="371" height="1" stroke="none" stroke-width="0" fill="#cccccc"></rect><rect x="115" y="275" width="371" height="1" stroke="none" stroke-width="0" fill="#ebebeb"></rect><rect x="115" y="195" width="371" height="1" stroke="none" stroke-width="0" fill="#ebebeb"></rect><rect x="115" y="115" width="371" height="1" stroke="none" stroke-width="0" fill="#ebebeb"></rect></g><g><rect x="115" y="75" width="1" height="241" stroke="none" stroke-width="0" fill="#333333"></rect><rect x="115" y="315" width="371" height="1" stroke="none" stroke-width="0" fill="#333333"></rect></g><g><path d="M116.24,95.41999999999999L119.2,231.5L122.9,268.7L152.5,311.98L189.5,314.516L263.5,315.244L485.5,315.46" stroke="#3366cc" stroke-width="3" fill-opacity="1" fill="none"></path><path d="M116.24,109.34L119.2,143.5L122.9,158.7L152.5,267.5L189.5,291.5L263.5,312.62L485.5,315.244" stroke="#dc3912" stroke-width="3" fill-opacity="1" fill="none"></path><path d="M116.24,119.5L119.2,134.7L122.9,139.9L152.5,204.86L189.5,238.94L263.5,279.58L485.5,305.9" stroke="#ff9900" stroke-width="3" fill-opacity="1" fill="none"></path></g></g><g><circle cx="116.24" cy="95.41999999999999" r="4.5" stroke="none" stroke-width="0" fill="#3366cc"></circle><circle cx="119.2" cy="231.5" r="4.5" stroke="none" stroke-width="0" fill="#3366cc"></circle><circle cx="122.9" cy="268.7" r="4.5" stroke="none" stroke-width="0" fill="#3366cc"></circle><circle cx="152.5" cy="311.98" r="4.5" stroke="none" stroke-width="0" fill="#3366cc"></circle><circle cx="189.5" cy="314.516" r="4.5" stroke="none" stroke-width="0" fill="#3366cc"></circle><circle cx="263.5" cy="315.244" r="4.5" stroke="none" stroke-width="0" fill="#3366cc"></circle><circle cx="485.5" cy="315.46" r="4.5" stroke="none" stroke-width="0" fill="#3366cc"></circle><circle cx="116.24" cy="109.34" r="4.5" stroke="none" stroke-width="0" fill="#dc3912"></circle><circle cx="119.2" cy="143.5" r="4.5" stroke="none" stroke-width="0" fill="#dc3912"></circle><circle cx="122.9" cy="158.7" r="4.5" stroke="none" stroke-width="0" fill="#dc3912"></circle><circle cx="152.5" cy="267.5" r="4.5" stroke="none" stroke-width="0" fill="#dc3912"></circle><circle cx="189.5" cy="291.5" r="4.5" stroke="none" stroke-width="0" fill="#dc3912"></circle><circle cx="263.5" cy="312.62" r="4.5" stroke="none" stroke-width="0" fill="#dc3912"></circle><circle cx="485.5" cy="315.244" r="4.5" stroke="none" stroke-width="0" fill="#dc3912"></circle><circle cx="116.24" cy="119.5" r="4.5" stroke="none" stroke-width="0" fill="#ff9900"></circle><circle cx="119.2" cy="134.7" r="4.5" stroke="none" stroke-width="0" fill="#ff9900"></circle><circle cx="122.9" cy="139.9" r="4.5" stroke="none" stroke-width="0" fill="#ff9900"></circle><circle cx="152.5" cy="204.86" r="4.5" stroke="none" stroke-width="0" fill="#ff9900"></circle><circle cx="189.5" cy="238.94" r="4.5" stroke="none" stroke-width="0" fill="#ff9900"></circle><circle cx="263.5" cy="279.58" r="4.5" stroke="none" stroke-width="0" fill="#ff9900"></circle><circle cx="485.5" cy="305.9" r="4.5" stroke="none" stroke-width="0" fill="#ff9900"></circle></g><g><g><text text-anchor="middle" x="115.5" y="335.05" font-family="Arial" font-size="13" stroke="none" stroke-width="0" fill="#444444">0</text></g><g><text text-anchor="middle" x="189.5" y="335.05" font-family="Arial" font-size="13" stroke="none" stroke-width="0" fill="#444444">100,000</text></g><g><text text-anchor="middle" x="263.5" y="335.05" font-family="Arial" font-size="13" stroke="none" stroke-width="0" fill="#444444">200,000</text></g><g><text text-anchor="middle" x="337.5" y="335.05" font-family="Arial" font-size="13" stroke="none" stroke-width="0" fill="#444444">300,000</text></g><g><text text-anchor="middle" x="411.5" y="335.05" font-family="Arial" font-size="13" stroke="none" stroke-width="0" fill="#444444">400,000</text></g><g><text text-anchor="middle" x="485.5" y="335.05" font-family="Arial" font-size="13" stroke="none" stroke-width="0" fill="#444444">500,000</text></g><g><text text-anchor="end" x="102" y="320.05" font-family="Arial" font-size="13" stroke="none" stroke-width="0" fill="#444444">0</text></g><g><text text-anchor="end" x="102" y="240.05" font-family="Arial" font-size="13" stroke="none" stroke-width="0" fill="#444444">1,000</text></g><g><text text-anchor="end" x="102" y="160.05" font-family="Arial" font-size="13" stroke="none" stroke-width="0" fill="#444444">2,000</text></g><g><text text-anchor="end" x="102" y="80.05" font-family="Arial" font-size="13" stroke="none" stroke-width="0" fill="#444444">3,000</text></g></g></g><g><g><text text-anchor="middle" x="300.5" y="368.05" font-family="Arial" font-size="13" font-style="italic" stroke="none" stroke-width="0" fill="#222222">#Boid</text><rect x="115" y="357" width="371" height="13" stroke="none" stroke-width="0" fill-opacity="0" fill="#ffffff"></rect></g><g><text text-anchor="middle" x="39.05" y="195.5" font-family="Arial" font-size="13" font-style="italic" transform="rotate(-90 39.05 195.5)" stroke="none" stroke-width="0" fill="#222222">FPS</text><path d="M27.999999999999996,316L28.00000000000001,75L41.00000000000001,75L40.99999999999999,316Z" stroke="none" stroke-width="0" fill-opacity="0" fill="#ffffff"></path></g></g><g></g></svg>