<?xml version="1.0" encoding="UTF-8" standalone="no"?><svg xmlns="http://www.w3.org/2000/svg" xmlns:xlink= "http://www.w3.org/1999/xlink" width="600" height="390" aria-label="A chart." style="overflow: hidden;"><defs id="_ABSTRACT_RENDERER_ID_270"><clipPath id="_ABSTRACT_RENDERER_ID_271"><rect x="115" y="75" width="371" height="241"></rect></clipPath><filter id="_ABSTRACT_RENDERER_ID_272"><feGaussianBlur in="SourceAlpha" stdDeviation="2"></feGaussianBlur><feOffset dx="1" dy="1"></feOffset><feComponentTransfer><feFuncA type="linear" slope="0.1"></feFuncA></feComponentTransfer><feMerge><feMergeNode></feMergeNode><feMergeNode in="SourceGraphic"></feMergeNode></feMerge></filter></defs><rect x="0" y="0" width="600" height="390" stroke="none" stroke-width="0" fill="#ffffff"></rect><g><text text-anchor="start" x="115" y="52.05" font-family="Arial" font-size="13" font-weight="bold" stroke="none" stroke-width="0" fill="#000000">Time Cost vs. Pixel Count</text><rect x="115" y="41" width="371" height="13" stroke="none" stroke-width="0" fill-opacity="0" fill="#ffffff"></rect></g><g><rect x="115" y="75" width="371" height="241" stroke="none" stroke-width="0" fill-opacity="0" fill="#ffffff"></rect><g clip-path="url(https://www.rapidtables.com/tools/line-graph.html#_ABSTRACT_RENDERER_ID_271)"><g><rect x="115" y="75" width="1" height="241" stroke="none" stroke-width="0" fill="#cccccc"></rect><rect x="192" y="75" width="1" height="241" stroke="none" stroke-width="0" fill="#cccccc"></rect><rect x="269" y="75" width="1" height="241" stroke="none" stroke-width="0" fill="#cccccc"></rect><rect x="346" y="75" width="1" height="241" stroke="none" stroke-width="0" fill="#cccccc"></rect><rect x="423" y="75" width="1" height="241" stroke="none" stroke-width="0" fill="#cccccc"></rect><rect x="154" y="75" width="1" height="241" stroke="none" stroke-width="0" fill="#ebebeb"></rect><rect x="231" y="75" width="1" height="241" stroke="none" stroke-width="0" fill="#ebebeb"></rect><rect x="308" y="75" width="1" height="241" stroke="none" stroke-width="0" fill="#ebebeb"></rect><rect x="385" y="75" width="1" height="241" stroke="none" stroke-width="0" fill="#ebebeb"></rect><rect x="462" y="75" width="1" height="241" stroke="none" stroke-width="0" fill="#ebebeb"></rect><rect x="500" y="75" width="1" height="241" stroke="none" stroke-width="0" fill="#ebebeb"></rect><rect x="115" y="315" width="371" height="1" stroke="none" stroke-width="0" fill="#cccccc"></rect><rect x="115" y="267" width="371" height="1" stroke="none" stroke-width="0" fill="#cccccc"></rect><rect x="115" y="219" width="371" height="1" stroke="none" stroke-width="0" fill="#cccccc"></rect><rect x="115" y="171" width="371" height="1" stroke="none" stroke-width="0" fill="#cccccc"></rect><rect x="115" y="123" width="371" height="1" stroke="none" stroke-width="0" fill="#cccccc"></rect><rect x="115" y="75" width="371" height="1" stroke="none" stroke-width="0" fill="#cccccc"></rect><rect x="115" y="291" width="371" height="1" stroke="none" stroke-width="0" fill="#ebebeb"></rect><rect x="115" y="243" width="371" height="1" stroke="none" stroke-width="0" fill="#ebebeb"></rect><rect x="115" y="195" width="371" height="1" stroke="none" stroke-width="0" fill="#ebebeb"></rect><rect x="115" y="147" width="371" height="1" stroke="none" stroke-width="0" fill="#ebebeb"></rect><rect x="115" y="99" width="371" height="1" stroke="none" stroke-width="0" fill="#ebebeb"></rect></g><g><rect x="115" y="75" width="1" height="241" stroke="none" stroke-width="0" fill="#333333"></rect><rect x="115" y="315" width="371" height="1" stroke="none" stroke-width="0" fill="#333333"></rect></g><g><path d="M125.36666666666667,307.2248L154.96666666666667,283.916L204.3,257.084L273.3666666666667,229.2344L362.1666666666667,173.51600000000002L470.70000000000005,114.47600000000003" stroke="#3366cc" stroke-width="3" fill-opacity="1" fill="none"></path></g></g><g><circle cx="125.36666666666667" cy="307.2248" r="4.5" stroke="none" stroke-width="0" fill="#3366cc"></circle><circle cx="154.96666666666667" cy="283.916" r="4.5" stroke="none" stroke-width="0" fill="#3366cc"></circle><circle cx="204.3" cy="257.084" r="4.5" stroke="none" stroke-width="0" fill="#3366cc"></circle><circle cx="273.3666666666667" cy="229.2344" r="4.5" stroke="none" stroke-width="0" fill="#3366cc"></circle><circle cx="362.1666666666667" cy="173.51600000000002" r="4.5" stroke="none" stroke-width="0" fill="#3366cc"></circle><circle cx="470.70000000000005" cy="114.47600000000003" r="4.5" stroke="none" stroke-width="0" fill="#3366cc"></circle></g><g><g><text text-anchor="middle" x="115.5" y="335.05" font-family="Arial" font-size="13" stroke="none" stroke-width="0" fill="#444444">0</text></g><g><text text-anchor="middle" x="192.5833" y="335.05" font-family="Arial" font-size="13" stroke="none" stroke-width="0" fill="#444444">5,000,000</text></g><g><text text-anchor="middle" x="269.6667" y="335.05" font-family="Arial" font-size="13" stroke="none" stroke-width="0" fill="#444444">10,000,000</text></g><g><text text-anchor="middle" x="346.75" y="335.05" font-family="Arial" font-size="13" stroke="none" stroke-width="0" fill="#444444">15,000,000</text></g><g><text text-anchor="middle" x="423.8333" y="335.05" font-family="Arial" font-size="13" stroke="none" stroke-width="0" fill="#444444">20,000,000</text></g><g><text text-anchor="end" x="102" y="320.05" font-family="Arial" font-size="13" stroke="none" stroke-width="0" fill="#444444">0</text></g><g><text text-anchor="end" x="102" y="272.05" font-family="Arial" font-size="13" stroke="none" stroke-width="0" fill="#444444">5,000</text></g><g><text text-anchor="end" x="102" y="224.05" font-family="Arial" font-size="13" stroke="none" stroke-width="0" fill="#444444">10,000</text></g><g><text text-anchor="end" x="102" y="176.05" font-family="Arial" font-size="13" stroke="none" stroke-width="0" fill="#444444">15,000</text></g><g><text text-anchor="end" x="102" y="128.05" font-family="Arial" font-size="13" stroke="none" stroke-width="0" fill="#444444">20,000</text></g><g><text text-anchor="end" x="102" y="80.05" font-family="Arial" font-size="13" stroke="none" stroke-width="0" fill="#444444">25,000</text></g></g></g><g><g><text text-anchor="middle" x="300.5" y="368.05" font-family="Arial" font-size="13" font-style="italic" stroke="none" stroke-width="0" fill="#222222">Pixel Count</text><rect x="115" y="357" width="371" height="13" stroke="none" stroke-width="0" fill-opacity="0" fill="#ffffff"></rect></g><g><text text-anchor="middle" x="35.55" y="195.5" font-family="Arial" font-size="13" font-style="italic" transform="rotate(-90 35.55 195.5)" stroke="none" stroke-width="0" fill="#222222">Time Cost (microseconds)</text><path d="M24.499999999999996,316L24.50000000000001,75L37.50000000000001,75L37.49999999999999,316Z" stroke="none" stroke-width="0" fill-opacity="0" fill="#ffffff"></path></g></g><g></g></svg>