<?xml version="1.0" encoding="UTF-8" standalone="no"?><svg xmlns="http://www.w3.org/2000/svg" xmlns:xlink= "http://www.w3.org/1999/xlink" width="600" height="390" aria-label="A chart." style="overflow: hidden;"><defs id="_ABSTRACT_RENDERER_ID_486"><clipPath id="_ABSTRACT_RENDERER_ID_487"><rect x="115" y="75" width="371" height="241"></rect></clipPath></defs><rect x="0" y="0" width="600" height="390" stroke="none" stroke-width="0" fill="#ffffff"></rect><g><text text-anchor="start" x="115" y="52.05" font-family="Arial" font-size="13" font-weight="bold" stroke="none" stroke-width="0" fill="#000000">Denoise Time vs. Filter Size</text><rect x="115" y="41" width="371" height="13" stroke="none" stroke-width="0" fill-opacity="0" fill="#ffffff"></rect></g><g><rect x="115" y="75" width="371" height="241" stroke="none" stroke-width="0" fill-opacity="0" fill="#ffffff"></rect><g clip-path="url(https://www.rapidtables.com/tools/bar-graph.html#_ABSTRACT_RENDERER_ID_487)"><g><rect x="115" y="315" width="371" height="1" stroke="none" stroke-width="0" fill="#cccccc"></rect><rect x="115" y="255" width="371" height="1" stroke="none" stroke-width="0" fill="#cccccc"></rect><rect x="115" y="195" width="371" height="1" stroke="none" stroke-width="0" fill="#cccccc"></rect><rect x="115" y="135" width="371" height="1" stroke="none" stroke-width="0" fill="#cccccc"></rect><rect x="115" y="75" width="371" height="1" stroke="none" stroke-width="0" fill="#cccccc"></rect><rect x="115" y="285" width="371" height="1" stroke="none" stroke-width="0" fill="#ebebeb"></rect><rect x="115" y="225" width="371" height="1" stroke="none" stroke-width="0" fill="#ebebeb"></rect><rect x="115" y="165" width="371" height="1" stroke="none" stroke-width="0" fill="#ebebeb"></rect><rect x="115" y="105" width="371" height="1" stroke="none" stroke-width="0" fill="#ebebeb"></rect></g><g><rect x="126" y="297" width="32" height="18" stroke="none" stroke-width="0" fill="#3366cc"></rect><rect x="178" y="281" width="33" height="34" stroke="none" stroke-width="0" fill="#3366cc"></rect><rect x="231" y="272" width="33" height="43" stroke="none" stroke-width="0" fill="#3366cc"></rect><rect x="284" y="233" width="33" height="82" stroke="none" stroke-width="0" fill="#3366cc"></rect><rect x="337" y="220" width="33" height="95" stroke="none" stroke-width="0" fill="#3366cc"></rect><rect x="390" y="165" width="33" height="150" stroke="none" stroke-width="0" fill="#3366cc"></rect><rect x="443" y="122" width="32" height="193" stroke="none" stroke-width="0" fill="#3366cc"></rect></g><g><rect x="115" y="315" width="371" height="1" stroke="none" stroke-width="0" fill="#333333"></rect></g></g><g></g><g><g><text text-anchor="middle" x="141.92857142857142" y="335.05" font-family="Arial" font-size="13" stroke="none" stroke-width="0" fill="#222222">5</text></g><g><text text-anchor="middle" x="194.78571428571428" y="335.05" font-family="Arial" font-size="13" stroke="none" stroke-width="0" fill="#222222">9</text></g><g><text text-anchor="middle" x="247.64285714285714" y="335.05" font-family="Arial" font-size="13" stroke="none" stroke-width="0" fill="#222222">17</text></g><g><text text-anchor="middle" x="300.5" y="335.05" font-family="Arial" font-size="13" stroke="none" stroke-width="0" fill="#222222">33</text></g><g><text text-anchor="middle" x="353.35714285714283" y="335.05" font-family="Arial" font-size="13" stroke="none" stroke-width="0" fill="#222222">65</text></g><g><text text-anchor="middle" x="406.2142857142857" y="335.05" font-family="Arial" font-size="13" stroke="none" stroke-width="0" fill="#222222">129</text></g><g><text text-anchor="middle" x="459.07142857142856" y="335.05" font-family="Arial" font-size="13" stroke="none" stroke-width="0" fill="#222222">257</text></g><g><text text-anchor="end" x="102" y="320.05" font-family="Arial" font-size="13" stroke="none" stroke-width="0" fill="#444444">0</text></g><g><text text-anchor="end" x="102" y="260.05" font-family="Arial" font-size="13" stroke="none" stroke-width="0" fill="#444444">2,000</text></g><g><text text-anchor="end" x="102" y="200.05" font-family="Arial" font-size="13" stroke="none" stroke-width="0" fill="#444444">4,000</text></g><g><text text-anchor="end" x="102" y="140.05" font-family="Arial" font-size="13" stroke="none" stroke-width="0" fill="#444444">6,000</text></g><g><text text-anchor="end" x="102" y="80.05" font-family="Arial" font-size="13" stroke="none" stroke-width="0" fill="#444444">8,000</text></g></g></g><g><g><text text-anchor="middle" x="300.5" y="368.05" font-family="Arial" font-size="13" font-style="italic" stroke="none" stroke-width="0" fill="#222222">Filter Side Length (px)</text><rect x="115" y="357" width="371" height="13" stroke="none" stroke-width="0" fill-opacity="0" fill="#ffffff"></rect></g><g><text text-anchor="middle" x="39.05" y="195.5" font-family="Arial" font-size="13" font-style="italic" transform="rotate(-90 39.05 195.5)" stroke="none" stroke-width="0" fill="#222222">Denoise Time (microseconds))</text><path d="M27.999999999999996,316L28.00000000000001,75L41.00000000000001,75L40.99999999999999,316Z" stroke="none" stroke-width="0" fill-opacity="0" fill="#ffffff"></path></g></g><g></g></svg>